<svg xmlns="http://www.w3.org/2000/svg" xmlns:xlink="http://www.w3.org/1999/xlink" width="646.224" height="401.537" version="1.1" viewBox="0 0 605.848 376.442"><defs id="defs4831"><linearGradient id="linearGradient4469" x1="188" x2="186.68" y1="186.46" y2="120.08" gradientTransform="matrix(2.7267 0 0 2.7267 -37.122 -269.29)" gradientUnits="userSpaceOnUse" xlink:href="#linearGradient4461"/><linearGradient id="linearGradient4461"><stop id="stop4463" offset="0" stop-color="#7694a2"/><stop id="stop4465" offset="1" stop-color="#7694a2" stop-opacity="0"/></linearGradient><linearGradient id="linearGradient4467" x1="57.998" x2="57.998" y1="188.25" y2="123.15" gradientTransform="matrix(2.7267 0 0 2.7267 -37.122 -269.29)" gradientUnits="userSpaceOnUse" xlink:href="#linearGradient4461"/></defs><g><path id="path4241" fill="#698999" fill-rule="evenodd" d="m211.67 45.821c-6.84-33.748-120.82-36.986-154.75 0-15.012 13.911-65.801 112.66-55.57 269.31 16.093 58.038 78.748 80.294 123.11 35.908l38.473-53.007c44.527 44.307 95.977 19.742 117.13-19.664h45.312c16.549 27.724 56.544 71.53 115.42 22.229l35.908 48.732c32.455 32.944 67.243 39.225 106.01 0 32.319-38.647 26.182-128.76 9.4044-200.91-17.85-67.059-21.82-78.214-41.16-101.92-38.32-38.997-153.4-28.384-158.74-1.017-7.04 26.748-32.21 26.892-61.99 25.132h-59.276c-51.71 3.973-46.65-13.796-59.27-24.794z"/><path id="path4294-6-5" fill="#303432" d="m351.1 275.99a40.935 40.935 0 0 1 26.746 -51.271 40.935 40.935 0 0 1 51.329 26.634 40.935 40.935 0 0 1 -26.522 51.387 40.935 40.935 0 0 1 -51.445 -26.41"/><path id="path4294-8" fill="#404643" d="m350.07 270.86a42.023 42.023 0 0 1 27.457 -52.633 42.023 42.023 0 0 1 52.693 27.342 42.023 42.023 0 0 1 -27.227 52.752 42.023 42.023 0 0 1 -52.812 -27.112"/><path id="path4294-6" fill="#303432" d="m176.59 275.99a40.935 40.935 0 0 1 26.746 -51.271 40.935 40.935 0 0 1 51.329 26.634 40.935 40.935 0 0 1 -26.522 51.387 40.935 40.935 0 0 1 -51.445 -26.41"/><path id="path4404-2" fill="url(#linearGradient4467)" d="m39.505 183.23a90.098 90.098 0 0 1 58.868 -112.85 90.098 90.098 0 0 1 112.98 58.62 90.098 90.098 0 0 1 -58.38 113.11 90.098 90.098 0 0 1 -113.23 -58.13"/><path id="path4249-3" fill="#303432" d="m76.884 170.36a51.598 51.598 0 0 1 33.713 -64.626 51.598 51.598 0 0 1 64.699 33.572 51.598 51.598 0 0 1 -33.431 64.772 51.598 51.598 0 0 1 -64.845 -33.289"/><path id="path4249" fill="#404643" d="m125.83 103.35a51.598 51.598 0 0 0 -15.231 2.3912 51.598 51.598 0 0 0 -1.635 0.60713l0.53255 32.997-32.539 0.14915a51.598 51.598 0 0 0 -0.0744 30.872l0.0109 0.0319 32.603 0.14916-0.53255 32.992a51.598 51.598 0 0 0 32.902 0.54321 51.598 51.598 0 0 0 1.4166 -0.53255l-0.52724-33.003 32.529-0.14916a51.598 51.598 0 0 0 0.0638 -30.904l-32.593-0.14915 0.52724-33.008a51.598 51.598 0 0 0 -17.452 -2.9876z"/><path id="path4294" fill="#404643" d="m175.56 270.86a42.023 42.023 0 0 1 27.457 -52.633 42.023 42.023 0 0 1 52.693 27.342 42.023 42.023 0 0 1 -27.227 52.752 42.023 42.023 0 0 1 -52.812 -27.112"/><path id="path4404" fill="url(#linearGradient4469)" d="m393.98 183.23a90.098 90.098 0 0 1 58.87 -112.85 90.098 90.098 0 0 1 112.97 58.62 90.098 90.098 0 0 1 -58.38 113.11 90.098 90.098 0 0 1 -113.22 -58.13"/><path id="path4313" fill="#ff0" d="m459.77 118.64a20.018 20.018 0 0 1 13.08 -25.073 20.018 20.018 0 0 1 25.101 13.025 20.018 20.018 0 0 1 -12.97 25.13 20.018 20.018 0 0 1 -25.158 -12.915"/><path id="path4313-6" fill="navy" d="m416.12 164.2a20.018 20.018 0 0 1 13.08 -25.073 20.018 20.018 0 0 1 25.101 13.025 20.018 20.018 0 0 1 -12.97 25.13 20.018 20.018 0 0 1 -25.158 -12.915"/><path id="path4313-1" fill="green" d="m459.77 209.76a20.018 20.018 0 0 1 13.08 -25.073 20.018 20.018 0 0 1 25.101 13.025 20.018 20.018 0 0 1 -12.97 25.13 20.018 20.018 0 0 1 -25.158 -12.915"/><path id="path4313-63" fill="red" d="m503.42 164.2a20.018 20.018 0 0 1 13.08 -25.073 20.018 20.018 0 0 1 25.101 13.025 20.018 20.018 0 0 1 -12.97 25.13 20.018 20.018 0 0 1 -25.158 -12.915"/></g><g fill="#404643"><path id="path4343" fill-rule="evenodd" d="m452.44 21.398 3.6093-15.303c2.1784-6.6037 31.329-7.4358 42.301 3.1762l17.414 18.047c-18.957-5.2625-40.347-7.3656-63.324-5.9193z"/><path id="path4343-1" fill-rule="evenodd" d="m151.47 19.417-3.61-14.519c-2.1784-6.6037-31.329-7.4358-42.301 3.1762l-17.297 19.163c20.09-4.1856 36.652-8.1666 63.205-7.8199z"/><rect id="rect4369" width="30.614" height="20.256" x="339.22" y="157.12" ry="9.437"/><rect id="rect4369-5" width="30.614" height="20.256" x="236.85" y="157.12" ry="9.437"/><rect id="rect4369-6" width="30.614" height="20.256" x="351.42" y="102.59" ry="9.437"/><rect id="rect4369-5-2" width="30.614" height="20.256" x="224.42" y="102.59" ry="9.437"/><path id="path4438" d="m570.19 344.91c-5.4942-17.666-7.1146-30.357-7.0975-55.589 0.0218-33.026 3.4996-49.93 15.487-75.293 6.0831-12.87 10.823-26.284 12.805-36.237l3.1468-15.803 2.3269 12.353c11.807 62.68 10.189 124.45-4.1095 156.89-4.0828 9.2625-15.042 23.654-18.013 23.654-0.79391 0-2.8399-4.4899-4.5466-9.9776z"/><path id="path4440" d="m17.027 345.59c-13.668-18.62-15.153-24.19-15.962-59.79-0.40031-17.619 0.25331-43.275 1.4524-57.015 2.4304-27.847 7.7252-64.562 9.1108-63.177 0.4947 0.49468 2.0487 6.9308 3.4533 14.302 1.4046 7.3716 6.5134 22.496 11.353 33.611 4.8395 11.114 10 25.875 11.469 32.802 3.4507 16.28 3.4779 53.064 0.0524 70.868-2.8206 14.66-9.7422 35.034-12.476 36.724-0.88519 0.54712-4.6889-3.2003-8.4526-8.3275z"/></g></svg>